<mxfile host="app.diagrams.net" modified="2023-07-27T12:31:45.431Z" agent="Mozilla/5.0 (Windows NT 10.0; Win64; x64) AppleWebKit/537.36 (KHTML, like Gecko) Chrome/115.0.0.0 Safari/537.36" etag="CJyUVOwOjva-4S4ZAdwG" version="21.6.5" type="device">
  <diagram name="Page-1" id="letcJc2Vfoig-unNDLRK">
    <mxGraphModel dx="1687" dy="882" grid="1" gridSize="10" guides="1" tooltips="1" connect="1" arrows="1" fold="1" page="1" pageScale="1" pageWidth="827" pageHeight="1169" math="0" shadow="0">
      <root>
        <mxCell id="0" />
        <mxCell id="1" parent="0" />
        <mxCell id="-be8asq360dSq94lClK1-7" value="" style="group;rotation=90;" parent="1" vertex="1" connectable="0">
          <mxGeometry x="90" y="120" width="82.5" height="134.5" as="geometry" />
        </mxCell>
        <mxCell id="-be8asq360dSq94lClK1-5" value="&lt;font color=&quot;#000000&quot;&gt;Xplan&lt;/font&gt;" style="outlineConnect=0;dashed=0;verticalLabelPosition=bottom;verticalAlign=top;align=center;html=1;shape=mxgraph.aws3.workspaces;fillColor=#76608a;gradientDirection=north;strokeColor=#432D57;fontColor=#ffffff;" parent="-be8asq360dSq94lClK1-7" vertex="1">
          <mxGeometry width="82.5" height="94.5" as="geometry" />
        </mxCell>
        <mxCell id="-be8asq360dSq94lClK1-19" style="edgeStyle=orthogonalEdgeStyle;rounded=0;orthogonalLoop=1;jettySize=auto;html=1;" parent="1" source="-be8asq360dSq94lClK1-9" target="-be8asq360dSq94lClK1-13" edge="1">
          <mxGeometry relative="1" as="geometry" />
        </mxCell>
        <mxCell id="-kEKYRSqE5PthgQYQTuM-38" style="rounded=0;orthogonalLoop=1;jettySize=auto;html=1;dashed=1;endArrow=oval;endFill=1;" edge="1" parent="1" source="-be8asq360dSq94lClK1-9">
          <mxGeometry relative="1" as="geometry">
            <mxPoint x="210" y="390.729020979021" as="targetPoint" />
          </mxGeometry>
        </mxCell>
        <mxCell id="-kEKYRSqE5PthgQYQTuM-53" style="edgeStyle=orthogonalEdgeStyle;rounded=0;orthogonalLoop=1;jettySize=auto;html=1;" edge="1" parent="1" source="-be8asq360dSq94lClK1-9" target="-kEKYRSqE5PthgQYQTuM-56">
          <mxGeometry relative="1" as="geometry">
            <mxPoint x="340" y="530" as="targetPoint" />
          </mxGeometry>
        </mxCell>
        <mxCell id="-be8asq360dSq94lClK1-9" value="Postgres Database" style="image;aspect=fixed;html=1;points=[];align=center;fontSize=12;image=img/lib/azure2/databases/Azure_Database_PostgreSQL_Server.svg;" parent="1" vertex="1">
          <mxGeometry x="260" y="337.5" width="81.75" height="109" as="geometry" />
        </mxCell>
        <mxCell id="-be8asq360dSq94lClK1-31" value="" style="edgeStyle=orthogonalEdgeStyle;rounded=0;orthogonalLoop=1;jettySize=auto;html=1;" parent="1" source="-be8asq360dSq94lClK1-11" target="-be8asq360dSq94lClK1-9" edge="1">
          <mxGeometry relative="1" as="geometry" />
        </mxCell>
        <mxCell id="-kEKYRSqE5PthgQYQTuM-85" value="" style="edgeStyle=orthogonalEdgeStyle;rounded=0;orthogonalLoop=1;jettySize=auto;html=1;" edge="1" parent="1" source="-be8asq360dSq94lClK1-11" target="-kEKYRSqE5PthgQYQTuM-80">
          <mxGeometry relative="1" as="geometry">
            <Array as="points">
              <mxPoint x="528" y="410" />
              <mxPoint x="530" y="410" />
            </Array>
          </mxGeometry>
        </mxCell>
        <mxCell id="-be8asq360dSq94lClK1-11" value="Python Script" style="shape=image;html=1;verticalAlign=top;verticalLabelPosition=bottom;labelBackgroundColor=#ffffff;imageAspect=0;aspect=fixed;image=https://cdn1.iconfinder.com/data/icons/ionicons-fill-vol-2/512/logo-python-128.png" parent="1" vertex="1">
          <mxGeometry x="505" y="400" width="64" height="64" as="geometry" />
        </mxCell>
        <mxCell id="-kEKYRSqE5PthgQYQTuM-57" style="edgeStyle=orthogonalEdgeStyle;rounded=0;orthogonalLoop=1;jettySize=auto;html=1;entryX=0.25;entryY=0;entryDx=0;entryDy=0;" edge="1" parent="1" source="-be8asq360dSq94lClK1-13" target="-kEKYRSqE5PthgQYQTuM-29">
          <mxGeometry relative="1" as="geometry">
            <Array as="points">
              <mxPoint x="217" y="760" />
              <mxPoint x="299" y="760" />
            </Array>
          </mxGeometry>
        </mxCell>
        <mxCell id="-kEKYRSqE5PthgQYQTuM-60" value="" style="edgeStyle=orthogonalEdgeStyle;rounded=0;orthogonalLoop=1;jettySize=auto;html=1;dashed=1;endArrow=oval;endFill=1;" edge="1" parent="1" source="-be8asq360dSq94lClK1-13">
          <mxGeometry relative="1" as="geometry">
            <mxPoint x="120" y="646" as="targetPoint" />
            <Array as="points">
              <mxPoint x="140" y="646" />
              <mxPoint x="140" y="646" />
            </Array>
          </mxGeometry>
        </mxCell>
        <mxCell id="-be8asq360dSq94lClK1-13" value="PowerBI" style="sketch=0;pointerEvents=1;shadow=0;dashed=0;html=1;strokeColor=#36393d;fillColor=#ffff88;aspect=fixed;labelPosition=center;verticalLabelPosition=bottom;verticalAlign=top;align=center;outlineConnect=0;shape=mxgraph.vvd.nsx_dashboard;" parent="1" vertex="1">
          <mxGeometry x="172.5" y="610" width="88.17" height="82" as="geometry" />
        </mxCell>
        <mxCell id="-kEKYRSqE5PthgQYQTuM-12" style="edgeStyle=orthogonalEdgeStyle;rounded=0;orthogonalLoop=1;jettySize=auto;html=1;dashed=1;" edge="1" parent="1" source="-kEKYRSqE5PthgQYQTuM-1" target="-kEKYRSqE5PthgQYQTuM-11">
          <mxGeometry relative="1" as="geometry" />
        </mxCell>
        <mxCell id="-kEKYRSqE5PthgQYQTuM-1" value="&lt;font color=&quot;#000000&quot;&gt;Refernce Updating&lt;/font&gt;" style="outlineConnect=0;dashed=0;verticalLabelPosition=bottom;verticalAlign=top;align=center;html=1;shape=mxgraph.aws3.workdocs;fillColor=#1ba1e2;gradientDirection=north;strokeColor=#006EAF;fontColor=#ffffff;" vertex="1" parent="1">
          <mxGeometry x="306.75" y="120" width="82.5" height="94.5" as="geometry" />
        </mxCell>
        <mxCell id="-kEKYRSqE5PthgQYQTuM-3" style="edgeStyle=orthogonalEdgeStyle;rounded=0;orthogonalLoop=1;jettySize=auto;html=1;" edge="1" parent="1" source="-be8asq360dSq94lClK1-5" target="-kEKYRSqE5PthgQYQTuM-1">
          <mxGeometry relative="1" as="geometry" />
        </mxCell>
        <mxCell id="-kEKYRSqE5PthgQYQTuM-19" value="" style="edgeStyle=orthogonalEdgeStyle;rounded=0;orthogonalLoop=1;jettySize=auto;html=1;" edge="1" parent="1" source="-kEKYRSqE5PthgQYQTuM-11" target="-kEKYRSqE5PthgQYQTuM-18">
          <mxGeometry relative="1" as="geometry" />
        </mxCell>
        <mxCell id="-kEKYRSqE5PthgQYQTuM-11" value="Email&amp;nbsp;&lt;br&gt;Notification BI Inbox&lt;br&gt;" style="sketch=0;outlineConnect=0;fontColor=#232F3E;gradientColor=none;fillColor=#B0084D;strokeColor=none;dashed=0;verticalLabelPosition=bottom;verticalAlign=top;align=center;html=1;fontSize=12;fontStyle=0;aspect=fixed;pointerEvents=1;shape=mxgraph.aws4.email_notification;" vertex="1" parent="1">
          <mxGeometry x="530" y="136.5" width="60" height="60" as="geometry" />
        </mxCell>
        <mxCell id="-kEKYRSqE5PthgQYQTuM-25" style="edgeStyle=orthogonalEdgeStyle;rounded=0;orthogonalLoop=1;jettySize=auto;html=1;" edge="1" parent="1" source="-kEKYRSqE5PthgQYQTuM-18" target="-kEKYRSqE5PthgQYQTuM-22">
          <mxGeometry relative="1" as="geometry">
            <Array as="points">
              <mxPoint x="800" y="167" />
              <mxPoint x="800" y="392" />
              <mxPoint x="701" y="392" />
            </Array>
          </mxGeometry>
        </mxCell>
        <mxCell id="-kEKYRSqE5PthgQYQTuM-18" value="Storage On BI Drives" style="sketch=0;pointerEvents=1;shadow=0;dashed=0;html=1;strokeColor=none;labelPosition=center;verticalLabelPosition=bottom;verticalAlign=top;outlineConnect=0;align=center;shape=mxgraph.office.concepts.folder;fillColor=#7FBA42;" vertex="1" parent="1">
          <mxGeometry x="680" y="141.25" width="70" height="52" as="geometry" />
        </mxCell>
        <mxCell id="-kEKYRSqE5PthgQYQTuM-44" value="" style="edgeStyle=orthogonalEdgeStyle;rounded=0;orthogonalLoop=1;jettySize=auto;html=1;" edge="1" parent="1" source="-kEKYRSqE5PthgQYQTuM-22" target="-be8asq360dSq94lClK1-11">
          <mxGeometry relative="1" as="geometry" />
        </mxCell>
        <mxCell id="-kEKYRSqE5PthgQYQTuM-22" value="&lt;font color=&quot;#000000&quot;&gt;Reference Data&lt;/font&gt;" style="outlineConnect=0;dashed=0;verticalLabelPosition=bottom;verticalAlign=top;align=center;html=1;shape=mxgraph.aws3.workdocs;fillColor=#1ba1e2;gradientDirection=north;strokeColor=#006EAF;fontColor=#ffffff;" vertex="1" parent="1">
          <mxGeometry x="660" y="414.75" width="82.5" height="94.5" as="geometry" />
        </mxCell>
        <mxCell id="-kEKYRSqE5PthgQYQTuM-29" value="User" style="image;aspect=fixed;perimeter=ellipsePerimeter;html=1;align=center;shadow=0;dashed=0;spacingTop=3;image=img/lib/active_directory/user_accounts.svg;" vertex="1" parent="1">
          <mxGeometry x="285" y="820" width="50" height="48.5" as="geometry" />
        </mxCell>
        <mxCell id="-kEKYRSqE5PthgQYQTuM-45" value="PowerBI" style="swimlane;fontStyle=0;childLayout=stackLayout;horizontal=1;startSize=30;horizontalStack=0;resizeParent=1;resizeParentMax=0;resizeLast=0;collapsible=1;marginBottom=0;whiteSpace=wrap;html=1;fillColor=#fff2cc;strokeColor=#d6b656;" vertex="1" parent="1">
          <mxGeometry x="10" y="602" width="110" height="90" as="geometry" />
        </mxCell>
        <mxCell id="-kEKYRSqE5PthgQYQTuM-47" value="ODBC Connection" style="text;strokeColor=none;fillColor=none;align=left;verticalAlign=middle;spacingLeft=4;spacingRight=4;overflow=hidden;points=[[0,0.5],[1,0.5]];portConstraint=eastwest;rotatable=0;whiteSpace=wrap;html=1;" vertex="1" parent="-kEKYRSqE5PthgQYQTuM-45">
          <mxGeometry y="30" width="110" height="30" as="geometry" />
        </mxCell>
        <mxCell id="-kEKYRSqE5PthgQYQTuM-48" value="SQL Query" style="text;strokeColor=none;fillColor=none;align=left;verticalAlign=middle;spacingLeft=4;spacingRight=4;overflow=hidden;points=[[0,0.5],[1,0.5]];portConstraint=eastwest;rotatable=0;whiteSpace=wrap;html=1;" vertex="1" parent="-kEKYRSqE5PthgQYQTuM-45">
          <mxGeometry y="60" width="110" height="30" as="geometry" />
        </mxCell>
        <mxCell id="-kEKYRSqE5PthgQYQTuM-51" value="&lt;b&gt;&lt;font style=&quot;font-size: 25px;&quot;&gt;Reference Data&lt;/font&gt;&lt;/b&gt;" style="text;strokeColor=#6c8ebf;fillColor=#dae8fc;align=left;verticalAlign=top;spacingLeft=4;spacingRight=4;overflow=hidden;rotatable=0;points=[[0,0.5],[1,0.5]];portConstraint=eastwest;whiteSpace=wrap;html=1;" vertex="1" parent="1">
          <mxGeometry x="341.75" y="10" width="198.25" height="50" as="geometry" />
        </mxCell>
        <mxCell id="-kEKYRSqE5PthgQYQTuM-62" style="edgeStyle=orthogonalEdgeStyle;rounded=0;orthogonalLoop=1;jettySize=auto;html=1;entryX=0.25;entryY=0;entryDx=0;entryDy=0;" edge="1" parent="1" source="-kEKYRSqE5PthgQYQTuM-56" target="-kEKYRSqE5PthgQYQTuM-29">
          <mxGeometry relative="1" as="geometry">
            <Array as="points">
              <mxPoint x="383" y="760" />
              <mxPoint x="300" y="760" />
              <mxPoint x="300" y="802" />
            </Array>
          </mxGeometry>
        </mxCell>
        <mxCell id="-kEKYRSqE5PthgQYQTuM-70" value="" style="edgeStyle=orthogonalEdgeStyle;rounded=0;orthogonalLoop=1;jettySize=auto;html=1;entryX=0;entryY=0.5;entryDx=0;entryDy=0;dashed=1;endArrow=oval;endFill=1;" edge="1" parent="1" source="-kEKYRSqE5PthgQYQTuM-56" target="-kEKYRSqE5PthgQYQTuM-68">
          <mxGeometry relative="1" as="geometry" />
        </mxCell>
        <mxCell id="-kEKYRSqE5PthgQYQTuM-56" value="Excel" style="shape=image;html=1;verticalAlign=top;verticalLabelPosition=bottom;labelBackgroundColor=#ffffff;imageAspect=0;aspect=fixed;image=https://cdn3.iconfinder.com/data/icons/document-icons-2/30/647702-excel-128.png" vertex="1" parent="1">
          <mxGeometry x="341.75" y="610" width="82" height="82" as="geometry" />
        </mxCell>
        <mxCell id="-kEKYRSqE5PthgQYQTuM-67" value="Excel" style="swimlane;fontStyle=0;childLayout=stackLayout;horizontal=1;startSize=30;horizontalStack=0;resizeParent=1;resizeParentMax=0;resizeLast=0;collapsible=1;marginBottom=0;whiteSpace=wrap;html=1;fillColor=#fff2cc;strokeColor=#d6b656;" vertex="1" parent="1">
          <mxGeometry x="505" y="606" width="110" height="90" as="geometry" />
        </mxCell>
        <mxCell id="-kEKYRSqE5PthgQYQTuM-68" value="ODBC Connection" style="text;strokeColor=none;fillColor=none;align=left;verticalAlign=middle;spacingLeft=4;spacingRight=4;overflow=hidden;points=[[0,0.5],[1,0.5]];portConstraint=eastwest;rotatable=0;whiteSpace=wrap;html=1;" vertex="1" parent="-kEKYRSqE5PthgQYQTuM-67">
          <mxGeometry y="30" width="110" height="30" as="geometry" />
        </mxCell>
        <mxCell id="-kEKYRSqE5PthgQYQTuM-69" value="SQL Query" style="text;strokeColor=none;fillColor=none;align=left;verticalAlign=middle;spacingLeft=4;spacingRight=4;overflow=hidden;points=[[0,0.5],[1,0.5]];portConstraint=eastwest;rotatable=0;whiteSpace=wrap;html=1;" vertex="1" parent="-kEKYRSqE5PthgQYQTuM-67">
          <mxGeometry y="60" width="110" height="30" as="geometry" />
        </mxCell>
        <mxCell id="-kEKYRSqE5PthgQYQTuM-77" value="Python" style="swimlane;fontStyle=0;childLayout=stackLayout;horizontal=1;startSize=30;horizontalStack=0;resizeParent=1;resizeParentMax=0;resizeLast=0;collapsible=1;marginBottom=0;whiteSpace=wrap;html=1;fillColor=#fff2cc;strokeColor=#d6b656;" vertex="1" parent="1">
          <mxGeometry x="458" y="240" width="140" height="120" as="geometry" />
        </mxCell>
        <mxCell id="-kEKYRSqE5PthgQYQTuM-78" value="Cleaning&amp;nbsp;" style="text;strokeColor=none;fillColor=none;align=left;verticalAlign=middle;spacingLeft=4;spacingRight=4;overflow=hidden;points=[[0,0.5],[1,0.5]];portConstraint=eastwest;rotatable=0;whiteSpace=wrap;html=1;" vertex="1" parent="-kEKYRSqE5PthgQYQTuM-77">
          <mxGeometry y="30" width="140" height="30" as="geometry" />
        </mxCell>
        <mxCell id="-kEKYRSqE5PthgQYQTuM-79" value="Clearing of Existing Data in DB" style="text;strokeColor=none;fillColor=none;align=left;verticalAlign=middle;spacingLeft=4;spacingRight=4;overflow=hidden;points=[[0,0.5],[1,0.5]];portConstraint=eastwest;rotatable=0;whiteSpace=wrap;html=1;" vertex="1" parent="-kEKYRSqE5PthgQYQTuM-77">
          <mxGeometry y="60" width="140" height="30" as="geometry" />
        </mxCell>
        <mxCell id="-kEKYRSqE5PthgQYQTuM-80" value="Insertion/Updating" style="text;strokeColor=none;fillColor=none;align=left;verticalAlign=middle;spacingLeft=4;spacingRight=4;overflow=hidden;points=[[0,0.5],[1,0.5]];portConstraint=eastwest;rotatable=0;whiteSpace=wrap;html=1;" vertex="1" parent="-kEKYRSqE5PthgQYQTuM-77">
          <mxGeometry y="90" width="140" height="30" as="geometry" />
        </mxCell>
        <mxCell id="-kEKYRSqE5PthgQYQTuM-81" value="Postgres" style="swimlane;fontStyle=0;childLayout=stackLayout;horizontal=1;startSize=30;horizontalStack=0;resizeParent=1;resizeParentMax=0;resizeLast=0;collapsible=1;marginBottom=0;whiteSpace=wrap;html=1;fillColor=#fff2cc;strokeColor=#d6b656;" vertex="1" parent="1">
          <mxGeometry x="70" y="330" width="140" height="120" as="geometry" />
        </mxCell>
        <mxCell id="-kEKYRSqE5PthgQYQTuM-82" value="Constraints&amp;nbsp;" style="text;strokeColor=none;fillColor=none;align=left;verticalAlign=middle;spacingLeft=4;spacingRight=4;overflow=hidden;points=[[0,0.5],[1,0.5]];portConstraint=eastwest;rotatable=0;whiteSpace=wrap;html=1;" vertex="1" parent="-kEKYRSqE5PthgQYQTuM-81">
          <mxGeometry y="30" width="140" height="30" as="geometry" />
        </mxCell>
        <mxCell id="-kEKYRSqE5PthgQYQTuM-83" value="Indexing&amp;nbsp;" style="text;strokeColor=none;fillColor=none;align=left;verticalAlign=middle;spacingLeft=4;spacingRight=4;overflow=hidden;points=[[0,0.5],[1,0.5]];portConstraint=eastwest;rotatable=0;whiteSpace=wrap;html=1;" vertex="1" parent="-kEKYRSqE5PthgQYQTuM-81">
          <mxGeometry y="60" width="140" height="30" as="geometry" />
        </mxCell>
        <mxCell id="-kEKYRSqE5PthgQYQTuM-84" value="Keys" style="text;strokeColor=none;fillColor=none;align=left;verticalAlign=middle;spacingLeft=4;spacingRight=4;overflow=hidden;points=[[0,0.5],[1,0.5]];portConstraint=eastwest;rotatable=0;whiteSpace=wrap;html=1;" vertex="1" parent="-kEKYRSqE5PthgQYQTuM-81">
          <mxGeometry y="90" width="140" height="30" as="geometry" />
        </mxCell>
      </root>
    </mxGraphModel>
  </diagram>
</mxfile>
